<svg xmlns="http://www.w3.org/2000/svg" xmlns:xlink="http://www.w3.org/1999/xlink" width="200" zoomAndPan="magnify" viewBox="0 0 150 149.999998" height="200" preserveAspectRatio="xMidYMid meet" version="1.0"><defs><g/></defs><g fill="#000000" fill-opacity="1"><g transform="translate(17.304327, 129.956898)"><g><path d="M 20.027344 2.53125 L 20.027344 2.109375 L 21.503906 0.632812 C 22.558594 -0.421875 23.820312 -1.6875 25.296875 -3.375 C 26.773438 -5.058594 28.460938 -6.957031 30.148438 -9.066406 C 31.832031 -11.171875 33.308594 -13.28125 34.785156 -15.390625 C 35.207031 -16.023438 35.628906 -16.867188 36.261719 -18.128906 C 36.894531 -19.394531 37.523438 -20.660156 38.367188 -22.136719 C 39.210938 -23.613281 40.054688 -25.085938 41.109375 -26.773438 C 42.164062 -28.460938 43.21875 -29.726562 44.269531 -30.777344 C 44.058594 -30.777344 43.640625 -30.566406 43.007812 -30.359375 C 43.007812 -30.566406 43.007812 -30.777344 42.796875 -30.988281 C 43.21875 -31.199219 43.429688 -31.410156 43.640625 -31.832031 C 43.21875 -31.832031 43.007812 -31.832031 43.007812 -32.042969 C 43.007812 -32.253906 43.007812 -32.464844 42.796875 -32.675781 C 43.21875 -32.886719 43.640625 -33.097656 44.058594 -33.308594 C 44.480469 -33.519531 44.691406 -33.730469 44.902344 -33.941406 C 44.902344 -33.730469 45.113281 -33.730469 45.324219 -33.730469 C 45.535156 -33.730469 45.957031 -33.730469 46.589844 -33.941406 C 47.222656 -34.152344 47.855469 -34.363281 48.488281 -34.574219 C 48.910156 -34.574219 49.332031 -34.574219 49.753906 -34.574219 C 50.175781 -34.574219 50.597656 -34.574219 51.015625 -34.574219 L 55.234375 -35.417969 C 55.023438 -35.417969 55.867188 -35.628906 57.972656 -36.050781 C 60.082031 -36.472656 62.402344 -36.683594 65.140625 -36.683594 C 63.667969 -32.253906 61.980469 -28.039062 60.082031 -24.03125 C 58.183594 -20.027344 56.289062 -16.234375 54.390625 -12.648438 C 54.601562 -12.859375 54.390625 -12.4375 53.96875 -11.59375 C 53.546875 -10.75 53.125 -9.699219 52.703125 -8.644531 C 52.28125 -7.589844 51.859375 -6.324219 51.4375 -5.058594 C 51.015625 -3.792969 50.804688 -2.953125 50.804688 -2.320312 C 50.804688 -1.6875 51.015625 -1.054688 51.4375 -0.632812 C 51.859375 -0.210938 52.070312 0.421875 52.070312 1.054688 C 51.859375 1.054688 51.648438 1.054688 51.4375 1.265625 C 51.226562 1.476562 50.804688 1.6875 50.175781 1.898438 C 50.386719 2.109375 50.386719 2.742188 50.386719 3.582031 C 50.386719 4.003906 50.386719 4.214844 50.175781 4.214844 L 49.542969 4.214844 C 48.910156 4.214844 48.488281 4.636719 48.488281 5.269531 C 48.488281 5.691406 48.910156 6.113281 49.753906 6.746094 C 50.597656 7.378906 51.648438 8.011719 52.914062 8.644531 C 54.179688 9.277344 55.445312 9.910156 56.921875 10.328125 C 58.394531 10.75 59.660156 10.960938 60.925781 10.960938 C 61.136719 10.960938 61.347656 10.960938 61.769531 10.75 C 62.191406 10.539062 62.613281 10.539062 63.035156 10.539062 C 63.246094 10.539062 63.667969 10.539062 64.089844 10.75 C 64.507812 10.960938 64.929688 10.960938 65.351562 10.960938 C 65.984375 10.960938 67.039062 10.539062 68.304688 9.699219 C 69.570312 8.855469 70.835938 8.222656 71.886719 7.589844 L 72.097656 7.800781 C 71.886719 8.011719 71.886719 8.222656 71.886719 8.433594 C 71.886719 9.066406 72.519531 9.488281 73.785156 9.488281 L 74.207031 9.066406 C 74.839844 9.699219 75.261719 10.121094 75.472656 10.328125 C 76.949219 8.433594 78.210938 6.957031 79.265625 5.902344 C 80.320312 4.847656 80.953125 3.582031 81.375 2.109375 C 81.585938 1.898438 81.796875 1.265625 82.21875 0.210938 C 82.640625 -0.84375 83.0625 -1.898438 83.695312 -3.164062 C 84.328125 -4.425781 84.746094 -5.691406 85.167969 -6.957031 C 85.589844 -8.222656 85.800781 -9.277344 85.800781 -10.121094 C 85.800781 -10.328125 86.011719 -11.171875 86.433594 -12.648438 C 86.855469 -14.125 87.488281 -15.8125 88.332031 -17.707031 C 89.175781 -19.605469 90.019531 -21.503906 90.863281 -23.402344 C 91.703125 -25.296875 92.546875 -26.984375 93.390625 -28.25 C 94.234375 -29.515625 94.65625 -30.359375 94.867188 -30.566406 C 95.078125 -30.777344 95.289062 -30.988281 95.289062 -31.199219 C 95.289062 -31.410156 95.289062 -31.832031 95.289062 -32.464844 C 95.289062 -33.097656 95.5 -34.152344 96.132812 -35.628906 C 96.765625 -37.105469 97.609375 -39.421875 98.871094 -42.375 C 100.136719 -45.324219 102.035156 -49.332031 104.355469 -54.390625 C 105.828125 -55.867188 106.882812 -58.183594 107.726562 -61.558594 C 108.570312 -64.929688 109.835938 -68.304688 111.3125 -71.464844 C 114.472656 -78.421875 117.425781 -84.746094 119.953125 -90.652344 C 122.484375 -96.554688 123.75 -102.457031 123.75 -108.359375 C 123.75 -108.570312 123.539062 -109.414062 123.117188 -110.890625 C 122.695312 -112.363281 122.0625 -113.207031 121.429688 -113.417969 C 121.429688 -113.628906 121.640625 -113.628906 122.0625 -113.628906 C 121.429688 -115.949219 120.796875 -117.425781 120.164062 -118.058594 C 119.53125 -118.6875 118.898438 -119.53125 118.269531 -120.585938 L 118.898438 -120.585938 C 119.320312 -120.585938 119.742188 -120.375 120.164062 -120.164062 L 121.429688 -119.320312 C 121.429688 -119.53125 121.429688 -119.742188 121.640625 -119.953125 C 120.585938 -120.375 119.742188 -120.796875 119.109375 -121.007812 C 118.476562 -121.21875 117.847656 -121.851562 117.214844 -122.90625 C 117.003906 -122.695312 116.792969 -122.484375 116.582031 -122.273438 C 116.371094 -122.0625 116.160156 -122.0625 115.949219 -122.0625 C 116.160156 -122.0625 115.949219 -122.273438 115.527344 -122.484375 C 115.105469 -122.695312 114.683594 -122.90625 114.050781 -123.328125 C 113.417969 -123.75 112.785156 -124.171875 112.363281 -124.59375 C 111.941406 -125.015625 111.730469 -125.433594 111.730469 -125.644531 C 111.730469 -125.855469 111.730469 -126.066406 111.941406 -126.277344 C 110.890625 -126.488281 110.257812 -126.699219 110.046875 -126.699219 C 109.625 -126.699219 109.203125 -126.699219 108.78125 -126.699219 C 108.359375 -126.699219 107.9375 -126.699219 107.515625 -126.699219 C 106.460938 -126.699219 105.40625 -126.699219 104.355469 -126.699219 C 103.300781 -126.699219 102.246094 -126.699219 101.191406 -126.699219 C 97.820312 -126.066406 95.289062 -125.433594 93.8125 -124.804688 C 92.335938 -124.171875 91.074219 -123.328125 90.230469 -122.484375 C 89.386719 -121.640625 88.542969 -120.585938 87.910156 -119.320312 C 87.277344 -118.058594 86.222656 -116.582031 84.746094 -115.105469 C 79.898438 -110.257812 75.894531 -105.40625 72.730469 -100.347656 C 69.570312 -95.289062 66.828125 -90.863281 64.507812 -87.066406 C 64.71875 -87.066406 64.71875 -87.066406 64.71875 -87.066406 C 64.71875 -87.066406 64.929688 -87.066406 65.140625 -87.066406 C 64.089844 -86.433594 63.035156 -85.589844 62.191406 -84.328125 C 61.347656 -83.0625 60.292969 -81.585938 59.238281 -80.109375 C 58.183594 -78.632812 57.132812 -76.949219 56.289062 -75.261719 C 55.445312 -73.574219 54.390625 -72.097656 53.335938 -70.835938 C 53.335938 -71.042969 53.125 -70.835938 52.914062 -70.203125 C 52.703125 -69.570312 52.28125 -68.726562 51.648438 -67.882812 C 51.015625 -67.039062 50.386719 -66.195312 49.542969 -65.351562 C 48.699219 -64.507812 47.855469 -63.878906 46.800781 -63.667969 C 47.011719 -63.457031 47.222656 -63.246094 47.433594 -63.246094 C 47.222656 -63.035156 47.011719 -62.824219 46.800781 -62.613281 L 46.378906 -61.769531 C 44.902344 -56.921875 42.585938 -52.914062 39.421875 -49.964844 C 36.261719 -47.011719 32.675781 -45.535156 28.671875 -45.535156 C 26.351562 -45.535156 24.242188 -45.746094 22.136719 -46.167969 C 20.027344 -46.589844 17.917969 -47.011719 15.601562 -47.222656 C 14.546875 -47.222656 13.492188 -47.222656 12.648438 -47.222656 C 11.804688 -47.222656 10.960938 -46.800781 10.328125 -46.167969 C 10.539062 -46.378906 10.539062 -46.378906 10.121094 -46.167969 C 9.699219 -45.957031 9.277344 -45.535156 8.644531 -44.902344 C 8.011719 -44.269531 7.378906 -43.640625 6.957031 -43.007812 C 6.535156 -42.375 6.324219 -41.742188 6.324219 -41.109375 C 6.324219 -39.84375 6.746094 -38.789062 7.589844 -37.734375 C 8.433594 -36.683594 9.066406 -35.417969 9.699219 -33.941406 C 10.121094 -33.308594 10.539062 -32.464844 10.960938 -31.410156 C 11.382812 -30.359375 12.015625 -29.304688 12.859375 -28.25 C 13.703125 -27.195312 14.546875 -26.351562 15.601562 -25.507812 C 16.65625 -24.664062 18.128906 -24.242188 19.816406 -24.242188 L 20.449219 -24.242188 C 20.660156 -24.242188 20.871094 -24.242188 21.082031 -24.03125 C 18.339844 -20.449219 16.234375 -17.285156 14.757812 -14.546875 C 13.28125 -11.804688 11.171875 -9.066406 8.433594 -6.324219 C 8.433594 -6.535156 8.433594 -6.535156 8.222656 -6.535156 C 8.433594 -6.746094 8.644531 -6.957031 8.855469 -7.167969 C 9.066406 -7.378906 9.277344 -7.589844 9.488281 -7.800781 C 8.855469 -7.167969 8.222656 -6.113281 7.589844 -4.847656 C 6.957031 -3.582031 6.324219 -2.742188 5.691406 -2.109375 C 5.691406 -2.320312 5.480469 -2.109375 5.269531 -1.6875 C 5.058594 -1.265625 4.636719 -0.84375 4.214844 -0.421875 C 3.792969 0 3.375 0.421875 2.953125 0.84375 L 2.320312 1.476562 L 2.320312 1.6875 C 2.320312 1.898438 2.109375 2.109375 1.898438 2.109375 C 1.6875 2.109375 1.476562 2.320312 1.265625 2.53125 C 1.265625 2.742188 1.476562 2.953125 1.6875 3.164062 C 1.265625 3.375 0.632812 4.003906 -0.421875 5.269531 C -1.476562 6.535156 -1.898438 7.800781 -1.898438 8.855469 C -1.898438 9.066406 -1.6875 9.277344 -1.054688 9.488281 C -1.265625 9.277344 -1.476562 8.855469 -1.6875 8.222656 L -0.84375 8.222656 C -1.054688 8.433594 -1.054688 8.855469 -1.054688 9.488281 C -0.632812 9.066406 -0.421875 8.855469 -0.210938 8.855469 C -0.210938 9.488281 -0.632812 10.121094 -1.476562 10.75 C -2.320312 11.382812 -2.742188 12.015625 -2.742188 12.648438 C -2.742188 13.28125 -2.53125 13.703125 -1.898438 13.914062 C -1.265625 14.125 -0.84375 14.335938 -0.632812 14.335938 C -0.84375 14.335938 -0.632812 14.335938 0 14.125 C 0.632812 13.914062 1.476562 13.703125 2.320312 13.492188 C 3.164062 13.28125 4.003906 13.070312 4.847656 12.648438 C 5.691406 12.226562 6.324219 11.804688 6.746094 11.382812 L 7.800781 10.539062 C 8.644531 9.910156 9.488281 9.277344 10.328125 8.644531 C 11.171875 8.011719 12.015625 7.589844 12.859375 7.167969 C 13.703125 6.746094 14.335938 6.535156 14.546875 6.535156 Z M 69.78125 -76.738281 L 69.148438 -76.738281 C 69.359375 -76.949219 69.570312 -77.371094 69.78125 -77.789062 C 69.992188 -78.210938 70.203125 -78.421875 70.625 -78.421875 L 71.042969 -78.421875 C 71.253906 -78.84375 71.464844 -79.265625 71.464844 -79.6875 C 71.464844 -80.109375 71.675781 -80.53125 71.886719 -80.953125 L 71.675781 -80.953125 L 72.097656 -81.164062 C 71.886719 -81.375 71.675781 -81.585938 71.675781 -81.796875 C 71.675781 -82.21875 72.097656 -82.851562 72.941406 -83.695312 C 73.785156 -84.535156 74.207031 -85.167969 74.207031 -85.378906 C 74.207031 -85.167969 74.417969 -85.589844 75.050781 -86.644531 C 75.683594 -87.699219 76.105469 -88.332031 76.316406 -88.542969 C 76.105469 -88.542969 75.894531 -88.542969 75.683594 -88.542969 C 75.472656 -88.542969 75.261719 -88.542969 75.050781 -88.542969 C 75.050781 -88.753906 75.261719 -89.175781 75.894531 -89.808594 C 76.527344 -90.441406 77.160156 -91.074219 77.789062 -91.914062 C 78.421875 -92.757812 79.054688 -93.601562 79.6875 -94.445312 C 80.320312 -95.289062 80.53125 -95.921875 80.53125 -96.34375 C 80.53125 -96.554688 80.53125 -96.765625 80.320312 -96.765625 C 80.109375 -96.765625 79.898438 -96.976562 79.6875 -97.1875 C 79.898438 -96.976562 80.109375 -96.976562 80.109375 -96.976562 C 80.109375 -96.976562 80.320312 -96.976562 80.53125 -96.765625 C 80.953125 -97.398438 81.375 -98.03125 81.796875 -98.871094 C 82.21875 -99.714844 82.640625 -100.347656 82.851562 -100.980469 C 82.851562 -101.191406 82.851562 -101.402344 82.640625 -101.613281 C 82.429688 -101.613281 82.21875 -101.402344 82.007812 -101.191406 C 81.796875 -100.980469 81.585938 -100.769531 81.375 -100.558594 C 81.585938 -100.769531 82.007812 -101.402344 82.429688 -102.246094 C 82.21875 -102.035156 82.007812 -102.035156 82.007812 -102.035156 C 82.007812 -102.035156 81.796875 -102.035156 81.585938 -101.824219 C 81.796875 -102.246094 82.007812 -102.667969 82.007812 -103.089844 C 82.007812 -103.511719 82.21875 -103.722656 82.640625 -103.933594 C 82.640625 -103.722656 82.640625 -103.511719 82.640625 -103.511719 C 82.640625 -103.511719 82.640625 -103.300781 82.640625 -103.089844 C 82.851562 -103.089844 82.851562 -103.089844 82.851562 -103.089844 C 82.851562 -103.089844 83.0625 -103.089844 83.273438 -103.089844 C 83.0625 -102.457031 82.851562 -102.035156 82.851562 -101.824219 C 83.273438 -101.824219 83.484375 -101.824219 83.484375 -102.035156 L 83.484375 -102.246094 C 84.117188 -102.878906 84.328125 -103.300781 84.328125 -103.511719 C 84.117188 -103.511719 83.90625 -103.511719 83.695312 -103.511719 C 83.484375 -103.511719 83.273438 -103.511719 83.0625 -103.511719 L 83.0625 -103.933594 C 83.0625 -104.144531 83.0625 -104.144531 83.273438 -104.144531 L 83.484375 -104.144531 C 83.695312 -104.144531 83.695312 -104.144531 83.695312 -104.144531 C 83.695312 -104.144531 83.695312 -104.144531 83.90625 -104.144531 C 83.90625 -104.355469 83.90625 -104.355469 83.90625 -104.355469 C 83.90625 -104.355469 83.90625 -104.355469 83.90625 -104.566406 C 83.90625 -104.777344 83.90625 -104.984375 83.695312 -105.195312 C 84.535156 -106.039062 85.167969 -106.671875 85.589844 -107.304688 C 86.011719 -107.9375 86.433594 -108.78125 87.066406 -109.835938 C 87.066406 -110.46875 87.066406 -110.890625 86.855469 -111.3125 C 87.066406 -111.101562 87.277344 -110.890625 87.488281 -110.679688 C 87.488281 -110.890625 87.488281 -110.890625 87.699219 -110.890625 C 87.488281 -111.101562 87.277344 -111.3125 87.066406 -111.523438 C 88.542969 -112.996094 89.597656 -113.839844 90.441406 -114.050781 C 91.285156 -114.261719 92.335938 -114.472656 93.8125 -114.472656 L 94.023438 -114.261719 C 94.023438 -114.050781 94.023438 -114.050781 94.234375 -114.050781 C 94.023438 -113.839844 93.8125 -113.628906 93.8125 -113.417969 C 93.8125 -113.207031 93.601562 -112.996094 93.179688 -112.996094 L 92.96875 -112.996094 C 92.757812 -112.996094 92.546875 -112.785156 92.335938 -112.574219 C 92.335938 -112.363281 92.546875 -112.152344 92.757812 -111.941406 C 92.546875 -111.941406 91.914062 -110.890625 90.863281 -108.992188 C 89.808594 -107.09375 88.753906 -104.984375 87.699219 -102.667969 C 86.855469 -99.925781 85.800781 -97.1875 84.535156 -94.445312 C 83.273438 -91.703125 82.007812 -88.753906 80.53125 -85.800781 C 79.054688 -82.640625 77.582031 -79.265625 76.316406 -75.683594 C 75.050781 -72.097656 73.785156 -68.726562 72.308594 -65.5625 C 72.097656 -65.351562 71.675781 -64.089844 70.835938 -61.769531 C 69.992188 -59.449219 68.9375 -56.921875 67.882812 -54.179688 C 66.828125 -51.4375 65.773438 -48.910156 64.71875 -46.800781 C 63.667969 -44.691406 62.824219 -43.640625 62.191406 -43.640625 C 61.136719 -43.640625 59.871094 -43.640625 58.394531 -43.640625 C 56.921875 -43.640625 55.445312 -43.640625 53.96875 -43.640625 C 52.492188 -43.640625 51.226562 -43.640625 50.175781 -43.640625 C 49.121094 -43.640625 48.488281 -43.851562 48.277344 -44.058594 C 48.910156 -44.902344 49.753906 -45.746094 50.804688 -46.589844 C 51.859375 -47.433594 52.703125 -48.488281 53.335938 -49.542969 L 53.125 -49.964844 L 55.65625 -52.492188 C 55.445312 -52.703125 55.234375 -52.914062 55.023438 -52.914062 C 54.8125 -52.914062 54.8125 -52.914062 54.8125 -53.125 C 54.8125 -52.914062 55.023438 -52.914062 55.234375 -53.335938 C 55.445312 -53.757812 55.867188 -54.179688 56.289062 -54.8125 L 57.550781 -56.5 C 57.972656 -57.132812 58.394531 -57.34375 58.816406 -57.34375 C 58.816406 -57.550781 58.605469 -57.761719 58.394531 -57.761719 C 58.183594 -57.761719 57.972656 -57.972656 57.972656 -58.183594 C 57.972656 -58.605469 58.183594 -59.238281 58.816406 -60.082031 C 59.449219 -60.925781 59.871094 -61.769531 60.082031 -62.402344 C 60.292969 -63.246094 61.347656 -64.929688 63.035156 -67.25 C 64.71875 -69.570312 66.40625 -72.519531 68.304688 -76.105469 Z M 70.625 -87.699219 C 70.835938 -87.910156 71.042969 -88.121094 71.253906 -88.332031 C 71.464844 -88.542969 71.675781 -88.753906 71.886719 -88.964844 C 71.886719 -87.910156 71.464844 -87.277344 70.835938 -87.277344 Z M 14.546875 6.746094 C 13.914062 6.957031 13.492188 7.378906 13.28125 8.011719 C 13.070312 8.644531 12.648438 9.066406 12.226562 9.488281 C 12.4375 9.488281 12.859375 9.277344 13.492188 8.644531 C 14.125 8.011719 14.546875 7.378906 14.546875 6.746094 Z M 14.546875 6.746094 C 15.601562 6.746094 16.234375 6.113281 16.445312 4.847656 C 16.234375 5.480469 16.023438 5.691406 15.8125 5.691406 L 15.390625 5.691406 C 15.179688 5.691406 14.96875 5.902344 14.96875 6.113281 C 14.96875 6.324219 14.757812 6.535156 14.546875 6.746094 Z M 17.707031 3.582031 C 17.496094 4.003906 17.285156 4.425781 17.074219 4.636719 C 16.867188 4.847656 16.867188 5.058594 16.867188 5.269531 L 17.285156 5.269531 C 17.496094 5.269531 17.707031 5.058594 17.707031 4.847656 C 17.707031 4.214844 17.707031 3.792969 17.496094 3.582031 Z M 17.707031 3.582031 "/></g></g></g></svg>