<svg width="56" height="56" viewBox="0 0 56 56" fill="none" xmlns="http://www.w3.org/2000/svg">
<path d="M27.9999 0.280004H28C35.3518 0.280004 42.4025 3.2005 47.601 8.399C52.7995 13.5975 55.72 20.6482 55.72 28C55.72 35.3518 52.7995 42.4025 47.601 47.601C42.4025 52.7995 35.3518 55.72 28 55.72C20.6482 55.72 13.5975 52.7995 8.399 47.601C3.20049 42.4025 0.28 35.3518 0.28 28C0.279996 20.6533 3.19645 13.607 8.38861 8.40938C13.5807 3.21176 20.6238 0.287831 27.9705 0.280004L27.9999 0.280004ZM29.4469 2.90589L29.12 2.85028V3.18192V14.4866V14.7666H29.4H39.2986H39.6932L39.5628 14.3941C39.0052 12.8008 38.3596 11.3269 37.6354 10.0116L37.6353 10.0116C35.3947 5.94322 32.5169 3.42804 29.4469 2.90589ZM26.88 3.29224V2.93435L26.5326 3.02047C23.6662 3.73113 20.9924 6.18098 18.8832 10.0116C18.159 11.3269 17.5134 12.8008 16.9557 14.3941L16.8254 14.7666H17.22H26.6H26.88V14.4866V3.29224ZM20.348 4.24672L20.0618 3.78378C14.4019 5.63379 9.62317 9.40716 6.48931 14.3364L6.21579 14.7666H6.7256H14.2604H14.4645L14.527 14.5723C15.1869 12.5179 15.9893 10.6213 16.9204 8.93102C17.914 7.12726 19.0673 5.54282 20.348 4.24672ZM36.714 4.04602L36.4151 4.50178C37.5974 5.74963 38.669 7.24393 39.5976 8.93094L39.5976 8.93101C40.5286 10.6212 41.3299 12.5178 41.9882 14.5721L42.0505 14.7666H42.2548H49.2744H49.7842L49.5107 14.3364C46.5213 9.63375 42.0359 5.97873 36.714 4.04602ZM5.18392 17.0072H5.06787L4.98585 17.0893L4.98529 17.0899L4.95071 17.1245L4.92992 17.1687C3.54107 20.1258 2.7366 23.3233 2.56073 26.5855L2.54482 26.8806H2.84032H12.2427H12.5136L12.5226 26.6099C12.6312 23.3402 13.0561 20.2243 13.7486 17.3529L13.832 17.0072H13.4764H5.18392ZM26.88 17.2872V17.0072H26.6H16.3694H16.3688H16.1523L16.0978 17.2167C15.3532 20.08 14.8851 23.2469 14.7657 26.59L14.7553 26.88H15.0455H26.6H26.88V26.6V17.2872ZM29.4006 17.0072H29.1206L29.1206 17.2872L29.12 26.6005L29.12 26.8806H29.4H41.4736H41.7638L41.7534 26.5906C41.634 23.2474 41.1653 20.0805 40.4208 17.2167L40.3663 17.0072H40.1498H29.4006ZM43.0394 17.0072H42.6839L42.7671 17.3528C43.4586 20.2241 43.8818 23.339 43.9898 26.6092L43.9988 26.88H44.2697H53.1591H53.4546L53.4387 26.585C53.2634 23.3229 52.4595 20.1254 51.0712 17.1682L50.9956 17.0072H50.8178H43.0394ZM2.84032 29.12H2.54482L2.56073 29.4151C2.7366 32.6773 3.54107 35.8748 4.92992 38.8318L5.00552 38.9928H5.18336H13.3437H13.6943L13.6167 38.6509C12.9636 35.7715 12.5788 32.6553 12.507 29.3938L12.5009 29.12H12.227H2.84032ZM15.027 29.12H14.7403L14.7471 29.4066C14.826 32.7386 15.2547 35.903 15.9568 38.7792L16.0089 38.9928H16.2288H26.6H26.88V38.7128V29.4V29.12H26.6H15.027ZM29.4 29.12H29.12V29.4V38.7128V38.9928H29.4H40.2892H40.5091L40.5612 38.7792C41.2633 35.9031 41.6926 32.7386 41.7714 29.4066L41.7782 29.12H41.4915H29.4ZM44.2826 29.12H44.0087L44.0026 29.3938C43.9308 32.6549 43.5482 35.7711 42.8973 38.6511L42.8201 38.9928H43.1704H50.8166H50.9945L51.0701 38.8318C52.4589 35.8748 53.2634 32.6773 53.4393 29.4151L53.4552 29.12H53.1597H44.2826ZM6.7256 41.2328H6.21576L6.48932 41.663C9.48154 46.3691 13.9709 50.0269 19.2979 51.958L20.3164 52.3271L19.6044 51.5107C18.6186 50.3803 17.717 49.076 16.9204 47.6301C15.9055 45.7871 15.0402 43.7026 14.3497 41.4314L14.2893 41.2328H14.0818H6.7256ZM17.0262 41.2328H16.6389L16.7604 41.6006C17.3598 43.4152 18.0742 45.0799 18.8832 46.5495L18.8832 46.5496C20.8619 50.1423 23.3356 52.5163 25.9989 53.3866L26.0316 53.3973L26.0658 53.3998C26.1255 53.404 26.1894 53.4094 26.2552 53.4148C26.3635 53.4239 26.4769 53.4333 26.5846 53.4393L26.88 53.4556V53.1597V41.5128V41.2328H26.6H17.0262ZM29.4 41.2328H29.12V41.5128V53.1597V53.4548L29.4147 53.4393C29.8168 53.4181 30.2183 53.3876 30.6189 53.3476L30.6523 53.3442L30.6839 53.3331C33.2845 52.4199 35.6972 50.069 37.6353 46.5495L37.6354 46.5495C38.4443 45.08 39.1594 43.4158 39.7577 41.6004L39.8789 41.2328H39.4918H29.4ZM42.434 41.2328H42.2263L42.1661 41.4315C41.4772 43.7021 40.6125 45.7872 39.5976 47.6301L39.5976 47.6302C38.8713 48.9498 38.0575 50.1521 37.1718 51.2122L37.4911 51.6516C42.4439 49.6613 46.6477 46.1678 49.5107 41.663L49.7841 41.2328H49.2744H42.434Z" fill="#93F2B1" stroke="#16171D" stroke-width="0.56"/>
</svg>
