<svg width="423" height="348" viewBox="0 0 423 348" fill="none" xmlns="http://www.w3.org/2000/svg">
<path fill-rule="evenodd" clip-rule="evenodd" d="M-32 325.481H-16.7451C3.74921 325.481 14.3769 320.476 28.1538 304.34C41.4425 288.776 66.8839 239.313 67.9401 226.989L68.6515 218.666L46.1497 217.864C9.71936 216.566 10.2598 215.159 63.6879 172.114C183.62 75.4889 280.789 13.8661 338.028 -1.86493C353.184 -6.02935 365.367 -7.45818 380.771 -6.87555C400.545 -6.12923 402.249 -5.60486 401.472 -0.513787C400.476 6.01166 396.792 11.0278 375.12 35.3706L358.953 53.5293L367.498 63.3202C372.197 68.7054 376.833 76.2768 377.798 80.1471C380.128 89.4858 377.208 106.629 372.771 109.664C366.836 113.729 345.722 110.069 336.801 103.436C328.418 97.1987 328.357 97.196 318.551 102.434C304.631 109.87 273.269 140.236 263.193 156.033C254.81 169.176 254.206 178.437 261.729 178.437C267.026 178.437 292.564 157.637 310 139.12C323.813 124.452 326.295 122.948 336.707 122.948C343.019 122.948 351.474 124.205 355.489 125.742L362.791 128.536L351.408 149.771C339.501 171.981 338.905 178.437 348.763 178.437C356.6 178.437 381.829 164.678 402.263 149.264C411.335 142.419 419.71 136.82 420.877 136.82C422.046 136.82 423 145.343 423 155.759C423 171.861 422.071 175.546 416.795 180.384C404.566 191.601 386.457 201.023 368.637 205.449C353.352 209.244 347.544 209.435 331.553 206.678C305.108 202.114 294.21 202.563 276.132 208.955C250.544 218.003 227.193 215.367 216.333 202.202C211.094 195.855 209.062 196.712 201.978 208.262C192.177 224.237 177.612 239.352 166.733 244.834C161.323 247.559 147.587 252.039 136.212 254.786C124.837 257.533 113.272 261.142 110.512 262.807C107.751 264.469 95.1932 278.954 82.6049 294.996C59.6729 324.216 35.1166 345.629 16.867 352.321C11.9806 354.113 -1.01036 355.673 -12.0076 355.789L-32 356V325.481ZM188.783 124.055C193.283 118.52 235.893 90.1683 272.571 68.3003C290.741 57.4662 300.012 53.5875 307.731 53.5875C321.425 53.5875 321.008 57.0334 306.52 63.5699C277.353 76.7318 237.388 113.407 218.926 143.953C215.302 149.949 211.05 155.734 209.475 156.807C205.816 159.307 196.261 150.29 189.828 138.271C185.443 130.081 185.314 128.319 188.783 124.055ZM114.152 200.43C114.152 198.793 123.296 188.072 134.472 176.606C157.561 152.92 165.746 150.598 170.246 166.46C173.478 177.846 170.773 188.308 162.423 196.709C156.56 202.605 153.279 203.407 134.957 203.407C121.983 203.407 114.152 202.286 114.152 200.43Z" fill="#66CC87"/>
</svg>
