<svg width="1311" height="406" viewBox="0 0 1311 406" fill="none" xmlns="http://www.w3.org/2000/svg">
<mask id="mask0_410_427" style="mask-type:alpha" maskUnits="userSpaceOnUse" x="0" y="0" width="1311" height="406">
<g clip-path="url(#clip0_410_427)">
<path d="M781 406C778.67 405.43 776.32 404.93 774 404.29C765.93 402.06 759.29 397.49 753.29 391.79C742.29 381.29 733.43 369.02 725.29 356.24C723.14 352.88 720.87 349.6 718.71 346.24C717.911 344.961 717.209 343.624 716.61 342.24C716.474 341.636 716.454 341.011 716.55 340.4C717.15 340.53 717.91 340.48 718.34 340.83C723.07 344.64 727.78 348.45 732.42 352.36C739.71 358.52 746.66 365.11 755.16 369.72C762.882 373.901 771.403 376.396 780.16 377.04C790.051 377.841 800.007 377.058 809.65 374.72C816.363 373.003 822.56 369.685 827.71 365.05C836.59 357.38 842.94 347.7 849.05 337.9C854.4 329.3 859.47 320.49 864.05 311.48C869.94 300 874.88 288.09 877.18 275.27C877.84 271.55 876.59 269.91 872.77 269.9C861.52 269.9 850.27 270.12 839.03 269.75C835.53 269.63 832.03 267.91 828.63 266.8C828.293 266.645 827.99 266.424 827.741 266.149C827.492 265.874 827.301 265.551 827.18 265.2C825.67 260.3 825.64 255.52 828.87 251.2C836.18 241.107 844.611 231.874 854 223.68C862.24 216.672 871.402 210.827 881.23 206.31C895.99 199.51 909.29 190.77 919.23 177.61C920.007 176.538 920.677 175.392 921.23 174.19C922.67 171.19 921.17 168.38 917.89 168.39C915.999 168.427 914.152 168.969 912.54 169.96C901.45 176.96 890.54 184.23 879.4 191.23C873.92 194.68 868.4 198.11 862.03 199.84C859.79 200.528 857.435 200.762 855.103 200.528C852.772 200.295 850.51 199.598 848.45 198.48C838.27 192.71 831.45 195.4 823.9 202.37C819.274 206.663 814.607 210.893 809.9 215.06C801.17 222.7 790.64 225.42 779.35 226.42C772.228 227.039 765.153 228.121 758.17 229.66C745.02 232.6 738.91 248.48 746.59 259.07C748.5 261.7 751.09 263.38 754.41 263.22C761.06 262.9 767.7 262.32 774.34 261.93C778.34 261.7 782.34 261.48 786.34 261.53C796.34 261.66 801.44 268.45 798.67 278.12C796.16 286.91 790.38 292.25 781.12 293.12C772.59 293.92 764.01 295 755.47 294.89C738.87 294.66 723.94 289.54 711.78 277.68C704.43 270.51 700.78 262.25 702.3 251.68C703.363 244.173 703.698 236.581 703.3 229.01C703.1 225.08 701.1 221.01 699.17 217.45C696.63 212.71 693.38 208.34 690.42 203.82C690.15 203.4 689.83 203.01 689.6 202.57C687.85 199.33 689.01 197.15 692.71 197.03C697.54 196.88 702.37 196.97 707.21 196.88C709.036 196.845 710.857 196.685 712.66 196.4C720.44 195.12 726.58 190.88 732.34 185.74C744.44 174.95 756.92 164.63 770.43 155.6C780.16 149.1 790.24 143.32 801.7 140.46C807.78 138.94 813.98 137.85 820.25 138.72C828.98 139.94 834.45 145.44 838.05 153.12C839.15 155.45 840.11 157.85 841.29 160.12C842.78 163 844.43 163.64 847.18 162.05C856.094 156.89 864.95 151.637 873.75 146.29C883.643 140.136 894.158 135.044 905.12 131.1C914.35 127.706 923.968 125.482 933.75 124.48C940.27 123.9 946.97 123.48 953.42 124.34C957.56 124.88 961.7 127.34 965.27 129.84C973.78 135.71 981.75 135.53 990.59 130.21C1004.47 121.85 1018.72 114.1 1032.92 106.28C1041.51 101.55 1050.56 97.6099 1058.92 92.5399C1069.06 86.3799 1078.83 79.5399 1088.53 72.7299C1099.93 64.6699 1110.96 56.0799 1122.39 48.0599C1129.68 42.8447 1138.28 39.7535 1147.22 39.1299L1185.33 36.5599C1189.15 36.2999 1193.01 36.2699 1196.78 35.6599C1199.13 35.2799 1201.34 34.0199 1203.62 33.1399C1204.37 32.8499 1205.46 31.3999 1205.55 33.5799C1205.8 39.4899 1206.02 45.3899 1206.14 51.2999C1206.3 58.9899 1202.61 64.7999 1197.49 70.2499C1186.61 81.8099 1176.06 93.6799 1165.49 105.49C1163.14 108.1 1163.24 109.63 1165.6 112.23C1168.23 115.13 1170.92 117.96 1173.71 120.7C1181.14 128.01 1183.79 136.95 1182.77 147.11C1182.44 150.41 1181.77 153.69 1181.12 156.95C1179.84 163.4 1175.51 165.14 1170.61 165.43C1157.14 166.23 1145.14 162.48 1135.17 153.09C1133.17 151.25 1131.07 151.04 1128.32 152.85C1122.78 156.51 1117.19 160.14 1111.87 164.11C1097.67 174.614 1085.03 187.07 1074.31 201.11C1070.05 206.72 1066.31 212.74 1062.55 218.71C1061.67 220.289 1061.23 222.073 1061.27 223.88C1061.41 226.288 1061.7 228.686 1062.13 231.06C1062.33 232.75 1063.02 233.29 1064.81 232.88C1070.67 231.57 1075.32 228.01 1080.14 224.78C1094.75 214.97 1106.87 202.43 1118.65 189.51C1121.17 186.745 1123.86 184.14 1126.7 181.71C1129.93 178.96 1134 178.03 1138.08 177.71C1146.63 176.99 1155.08 177.47 1162.95 181.39C1166.17 182.98 1166.3 182.86 1164.69 185.91C1158.11 198.33 1151.52 210.733 1144.91 223.12C1143.48 225.79 1143.82 227.49 1146.01 229.55C1149.83 233.15 1153.67 233.55 1158.72 231.44C1180.31 222.44 1199.34 209.56 1217.42 195C1225.2 188.711 1234.91 185.29 1244.91 185.31C1250.21 185.25 1255.52 186.02 1260.84 186.31C1262.93 186.42 1263.02 186.9 1262.12 188.8C1258 197.49 1251.51 204.26 1244.61 210.66C1234.07 220.44 1223.84 230.66 1212.61 239.59C1195.17 253.52 1174.88 260.22 1152.46 260.49C1142.78 260.61 1133.46 259.05 1124.07 256.83C1115.76 254.83 1107.29 253.65 1098.83 255.55C1094.25 256.55 1089.91 258.62 1085.4 259.96C1078.32 262.07 1071.19 264.01 1064.07 265.96C1058.45 267.571 1052.56 268.01 1046.77 267.25C1037.18 265.89 1029.35 261.1 1022.41 254.57C1020.72 252.98 1018.9 251.52 1017.07 250.08C1015.69 248.99 1014.65 248.92 1013.49 250.76C1008.36 258.93 1003.35 267.2 997.73 275.02C990.23 285.44 980.85 293.97 968.82 298.83C962.3 301.47 955.34 303.04 948.53 304.9C940.27 307.15 931.91 309.04 923.68 311.39C917.32 313.2 912.26 317.26 908.2 322.3C900.8 331.51 893.77 341 886.49 350.3C872.89 367.67 858.14 383.83 838.98 395.3C831.15 400.01 822.98 403.72 813.87 405.3C813.227 405.474 812.601 405.709 812 406H781ZM1113.35 107.29C1106.89 107.463 1100.58 109.277 1095.02 112.56C1086.13 117.56 1077.44 123.02 1068.74 128.39C1054.68 137.09 1040.74 145.91 1026.65 154.63C1016.07 161.06 1005.99 168.284 996.5 176.24C991.5 180.47 990.43 184.77 993.93 190.31C997.59 196.13 1001.93 201.48 1006.1 207C1011.81 214.63 1016.36 212.82 1020.41 205.62C1031.22 186.299 1045.07 168.837 1061.41 153.9C1076.92 139.518 1094.47 127.515 1113.49 118.28C1116.71 116.74 1119.85 115.01 1122.93 113.22C1123.6 112.674 1124.06 111.903 1124.21 111.05C1124.28 110.74 1123.48 109.95 1122.96 109.81C1119.38 108.79 1115.76 107.89 1113.35 107.27V107.29ZM938.07 256.43V256.16C943.4 256.16 948.73 256.34 954.07 256.11C961.91 255.78 968.89 253.35 973.18 246.23C979.18 236.23 979.72 225.61 975.58 214.8C974.03 210.75 970.8 208.92 966.99 209.41C963.066 209.806 959.385 211.498 956.53 214.22C948.977 221.5 941.404 228.76 933.81 236C928.49 241 924.64 247.14 921.02 253.42C920.32 254.64 920.79 255.42 921.91 255.71C923.349 256.111 924.829 256.346 926.32 256.41C930.23 256.49 934.15 256.43 938.07 256.43ZM769.82 203.51C769.69 206.7 769.93 207.08 772.96 206.25C776.649 205.284 780.259 204.04 783.76 202.53C794.53 197.73 801.48 189.59 804.37 178.09C805.03 175.48 804.66 175.09 802.04 175.56C794.126 176.91 786.693 180.278 780.46 185.34C774.73 190 770.47 195.77 769.82 203.51Z" fill="black"/>
<path d="M0 342C1.72 338.32 3.34 334.59 5.22 331C6.00563 329.354 7.14226 327.9 8.55 326.74C19.3 318.74 25.77 308.01 29.14 295.22C32.7 281.72 36.02 268.15 39.81 254.71C43.2 242.71 47.1 230.87 50.81 218.97C54.75 206.26 58.74 193.56 62.68 180.85C66.25 169.35 69.29 157.65 73.5 146.39C77.3505 135.755 84.1914 126.459 93.2 119.62C95.7449 117.653 98.9509 116.743 102.15 117.08C109.68 117.9 117.15 118.92 124.72 119.75C127.4 120.05 128.85 121.46 129.72 123.88C133.377 133.484 133.54 144.068 130.18 153.78C125 169.41 119.29 184.86 113.8 200.39C108.07 216.62 102.26 232.82 96.6 249.08C90.94 265.34 85.43 282 79.7 298.35C77.23 305.41 74.89 312.57 71.62 319.26C66 330.71 56.37 337.83 44.68 342.47C36.68 345.65 28.22 346.55 19.84 347.77C18.08 348.02 16.22 347.51 14.4 347.34C11.4 347.06 8.4 346.94 5.47 346.41C3.59355 345.929 1.76315 345.283 0 344.48L0 342Z" fill="black"/>
<path d="M592.94 271C592.48 263.09 592.06 255.13 594.47 247.45C596.42 241.19 598.47 234.96 600.78 228.81C603.69 220.93 606.84 213.15 609.92 205.34C610.65 203.5 609.15 203.34 608.16 203.08C606.005 202.44 603.811 201.942 601.59 201.59C594.85 200.59 588.1 199.15 581.33 199.03C570.33 198.85 561.26 203.42 554.71 212.33C542.94 228.33 531.16 244.33 519.71 260.61C506.153 280.111 489.512 297.275 470.44 311.43C464.55 315.78 458.63 320.11 452.44 324.05C444.73 328.99 435.98 330.16 427.18 328.59C418.351 326.966 409.623 324.833 401.04 322.2C397.958 321.184 394.706 320.789 391.47 321.038C388.235 321.287 385.08 322.175 382.19 323.65C372.27 328.52 362.46 333.65 352.31 338.01C344.05 341.53 335.31 343.01 326.18 341.09C320.11 339.79 315.18 336.56 310.59 332.64C309.403 331.599 308.121 330.671 306.76 329.87C302.08 327.2 298.88 328.02 295.52 332.29C292.16 336.56 289.02 340.51 285.52 344.36C280.15 350.19 273.16 352.55 265.4 352.97C256.52 353.46 248.04 351.51 239.62 349.02C237.72 348.46 237.55 347.61 238.15 345.79C240.38 339.06 240.1 332.22 236.26 326.32C233.719 322.725 230.473 319.683 226.72 317.38C217.24 311.23 207.5 305.47 197.72 299.77C185.44 292.6 173.22 285.31 160.62 278.77C152.25 274.4 143.26 271.21 134.56 267.45C130.44 265.67 126.29 263.94 122.26 261.96C120.174 260.976 118.373 259.478 117.026 257.606C115.679 255.734 114.83 253.55 114.56 251.26C112.98 240.87 115.87 232 124.31 225.55C133.75 218.33 143.54 211.55 153.1 204.55C173.23 189.68 193.38 174.84 213.37 159.78C225.09 150.94 227.18 132.28 220.37 121.04C216.79 115.13 210.99 112.22 204.83 109.96C190.12 104.56 174.77 102.96 159.23 102.32C143.93 101.64 128.65 100.56 113.39 99.3202C109.323 98.9267 105.318 98.0471 101.46 96.7001C94.2902 94.3401 87.4602 95.4602 80.7202 98.0402C69.7341 102.386 57.7281 103.473 46.1402 101.17C42.4802 100.46 38.6502 100.59 35.0002 99.8401C26.3302 98.0602 20.3802 92.4402 16.0602 85.1102C9.67024 74.2001 9.10024 62.3702 11.8602 50.3002C15.4002 34.8702 24.9002 23.2102 36.3802 13.0002C40.4802 9.35016 45.6802 7.92016 51.1202 7.56016C62.0002 6.84016 72.2702 9.32016 82.2102 13.5602C85.4202 14.9202 88.8902 15.7602 91.9202 17.4202C100.29 21.9902 103.75 29.8802 105.56 38.7502C105.89 40.3802 106.08 42.0402 106.5 43.6502C107.78 48.5502 110.17 50.5002 115.24 50.4402C123.4 50.3602 131.56 50.1002 139.71 49.9002C160.95 49.4002 182.21 48.4902 203.38 50.7102C224.23 52.8902 244.38 58.0602 262.72 68.5102C275.72 75.8902 286.58 85.5702 292.94 99.4002C296.84 107.88 297.32 116.9 295.94 126.09C293.81 140.51 286.94 152.68 277.4 163.26C260.84 181.55 242.87 198.38 222.69 212.64C215.03 218.05 206.61 222.36 198.76 227.51C192.76 231.42 187.19 235.86 181.43 240.08C179.96 241.16 180.69 241.9 181.76 242.78C189.873 249.286 198.555 255.049 207.7 260C221.2 267.52 234.62 275.21 248.18 282.63C251.663 284.566 255.385 286.035 259.25 287C265.37 288.46 270.2 285.28 273.99 281C283.72 269.88 293.76 258.94 302.61 247.12C312.2 234.3 320.61 220.56 329.5 207.23C334.72 199.44 339.69 191.45 345.28 183.93C350.03 177.55 356.92 175.77 364.28 178.74C373.36 182.41 382.28 186.4 391.18 190.57C397.72 193.64 403.77 192.9 409.7 189.32C420.65 182.71 431.36 175.65 442.55 169.46C450.26 165.2 458.62 162.14 467.8 162.95C472.712 163.525 477.371 165.438 481.27 168.48C486.905 172.564 492.316 176.947 497.48 181.61C501.59 185.34 501.92 191.51 498.82 196.83C493 206.7 487 216.46 481.33 226.45C475.66 236.44 470.2 246.7 465.05 257C463.05 261 462.05 265.47 460.88 269.79C460.643 271.084 460.774 272.418 461.26 273.64C461.82 275.27 462.89 276.73 463.49 278.36C464.29 280.51 465.31 280.15 466.49 278.84C470.25 274.73 474.21 270.84 477.68 266.47C486.46 255.47 495.22 244.47 503.62 233.28C513.18 220.49 522.29 207.38 531.68 194.47C537.68 186.21 543.92 178.11 549.9 169.83C554.44 163.55 560.68 161.83 567.9 162.73C575.9 163.73 583.9 165 591.85 166.19C602.73 167.81 612.46 164.83 621.35 158.71C624.35 156.64 627.1 154.18 630.15 152.18C638.97 146.4 648.26 146.62 657.15 151.55C663.281 155.049 669.055 159.139 674.39 163.76C683.02 171.09 683.62 179.34 676.58 188.29C667.58 199.73 658.37 210.98 649.32 222.38C640.89 233 633.13 244.15 628 256.85C625.08 264.12 622.68 271.55 622.32 279.5C622.22 281.85 623.12 282.76 625.41 282.96C632.55 283.56 639.67 284.36 646.8 284.96C652.64 285.48 656.47 288.55 655.8 293.09C655.255 296.517 654.204 299.843 652.68 302.96C650.46 307.73 645.93 309.96 641.3 311.73C633.173 314.858 624.316 315.577 615.79 313.8C609.591 312.614 603.971 309.376 599.837 304.607C595.703 299.837 593.294 293.815 593 287.51C592.78 282 592.94 276.53 592.94 271ZM342.76 288C343.2 292.55 343.45 297.13 344.11 301.65C344.87 306.88 348.01 310.39 354.05 307.18C365.86 300.9 377.81 294.88 389.56 288.49C396.09 284.94 402.16 280.64 406.04 274.01C410.94 265.61 415.76 257.16 420.6 248.73C423.414 243.83 426.217 238.923 429.01 234.01C431.65 229.39 430.96 226.36 426.57 223.38C425.68 222.78 424.75 222.23 423.86 221.63C415.96 216.38 408.1 211.09 400.17 205.9C397.38 204.08 396.07 204.27 393.84 206.73C390.84 209.99 388.05 213.36 385.21 216.73C376.57 226.95 368.21 237.44 359.26 247.36C348.74 259 342.78 272.18 342.76 288Z" fill="black"/>
<path d="M456.88 101.65C455.18 115.96 450.57 129.06 437.41 137.47C429.358 142.666 419.688 144.749 410.21 143.33C404.92 142.757 399.681 141.781 394.54 140.41C386.74 138.11 380.09 133.94 376.95 125.87C374.95 120.71 374.95 115.28 375.37 109.87C376.15 98.6197 380.42 89.0897 389.37 81.9897C394.407 78.1445 400.143 75.3154 406.26 73.6597C417.06 70.4797 427.65 70.7197 437.87 75.5897C446.34 79.5897 453.59 85.0397 455.97 94.8597C456.391 97.1058 456.694 99.3722 456.88 101.65Z" fill="black"/>
<path d="M1202.85 301.92C1203.12 308.25 1200.35 313.61 1197.24 318.79C1194.13 323.97 1190.88 328.79 1187.61 333.68C1184.9 337.75 1182.91 342.39 1178.61 345.2C1178.24 345.44 1178 346.67 1178.22 346.87C1178.48 347.086 1178.78 347.245 1179.11 347.338C1179.43 347.431 1179.77 347.455 1180.11 347.41C1181.69 347.06 1183.19 346.36 1184.76 345.98C1189.04 344.98 1193.37 344.11 1197.63 342.98C1201.56 341.98 1205.41 340.62 1209.33 339.54C1211.6 338.86 1213.92 338.365 1216.27 338.06C1217.04 337.98 1217.93 338.99 1218.76 339.5C1218.21 340.029 1217.61 340.498 1216.96 340.9C1211.96 343.25 1206.96 345.53 1201.96 347.85C1201.65 348.044 1201.36 348.272 1201.1 348.53C1201.5 348.71 1201.93 349.09 1202.29 349.03C1204.57 348.68 1206.82 348.13 1209.1 347.88C1210.07 347.935 1211.03 348.147 1211.93 348.51C1211.33 349.35 1210.93 350.57 1210.08 350.96C1206.43 352.71 1202.66 354.2 1198.96 355.84C1197.98 356.335 1197.03 356.893 1196.12 357.51C1197.16 357.791 1198.23 357.942 1199.31 357.96C1204.23 357.46 1209.14 356.83 1214.05 356.24C1214.21 356.206 1214.38 356.206 1214.55 356.24C1215.55 356.59 1216.65 356.97 1217.7 357.34C1216.82 357.979 1215.85 358.479 1214.82 358.82C1208.13 359.82 1201.82 361.93 1195.43 364.14C1192.16 365.28 1188.6 365.55 1185.18 366.27C1182.33 366.86 1179.46 367.46 1176.64 368.19C1171.99 369.39 1167.4 370.78 1162.75 371.93C1159.68 372.783 1156.55 373.369 1153.38 373.68C1151.01 373.728 1148.64 373.391 1146.38 372.68C1145.1 372.34 1145.28 370.79 1146.52 370.12C1147.03 369.84 1147.52 369.49 1147.99 369.17C1147.5 368.713 1146.94 368.335 1146.33 368.05C1145.08 367.67 1145.22 367.1 1145.52 366.05C1147.4 359.17 1151.04 353.3 1155.58 347.92C1157.34 345.83 1159.32 343.92 1161.01 341.76C1163.27 338.9 1165.2 335.76 1167.51 332.97C1171.13 328.57 1174.93 324.31 1178.7 320.03C1181.89 316.39 1185.18 312.84 1188.32 309.17C1188.78 308.63 1188.66 307.6 1188.8 306.8C1187.89 306.938 1187 307.215 1186.17 307.62C1184.27 308.93 1182.54 310.46 1180.69 311.84C1179.69 312.6 1178.44 313.12 1177.46 313.94C1174.68 316.24 1172.02 318.7 1169.2 320.94C1168.66 321.37 1167.63 321.2 1166.83 321.32C1166.22 321.309 1165.62 321.421 1165.06 321.65C1163.94 322.44 1163.06 323.53 1161.86 324.26C1160.66 324.99 1159.34 325.92 1158.28 325.7C1157.42 325.53 1156.44 323.85 1156.28 322.7C1156.07 321.09 1156.57 319.39 1156.73 317.7C1156.73 317.23 1156.94 316.6 1156.73 316.31C1155.09 314.22 1156.19 312.68 1157.6 311.13C1161.1 307.31 1164.4 303.29 1168.14 299.72C1169.61 298.31 1172.01 297.86 1174.02 297.06C1176.29 296.16 1178.57 295.28 1180.9 294.56C1183.78 293.66 1186.7 292.88 1189.64 292.18C1190.46 292.122 1191.28 292.231 1192.06 292.5C1194.23 292.97 1196.36 293.62 1198.55 293.92C1199.65 293.999 1200.69 294.47 1201.48 295.247C1202.27 296.024 1202.75 297.057 1202.85 298.16C1202.94 299.41 1202.85 300.67 1202.85 301.92Z" fill="black"/>
<path d="M1074.93 314.15C1075.85 319.69 1073.06 324.39 1070.47 329.01C1067.47 334.37 1064 339.48 1060.64 344.64C1057.75 349.09 1055.43 354 1050.97 357.28C1050.57 357.57 1050.32 358.83 1050.53 359.01C1051.06 359.46 1052.09 359.95 1052.59 359.72C1056.13 358.232 1059.86 357.269 1063.68 356.86C1067.68 356.27 1071.49 354.63 1075.39 353.49C1079.29 352.35 1083.22 351.21 1087.15 350.15C1087.87 349.909 1088.64 349.909 1089.36 350.15C1089.99 350.47 1090.36 351.28 1090.87 351.87C1090.46 352.274 1090 352.63 1089.5 352.93C1084.43 355.27 1079.35 357.57 1074.26 359.93C1073.96 360.07 1073.56 360.1 1073.36 360.32C1072.99 360.776 1072.66 361.261 1072.36 361.77C1072.92 361.825 1073.48 361.825 1074.03 361.77C1076.42 361.22 1078.8 360.61 1081.19 360.05C1081.59 359.925 1082.02 359.925 1082.42 360.05C1083.1 360.402 1083.74 360.803 1084.36 361.25C1083.91 361.83 1083.58 362.67 1082.98 362.94C1078.47 364.99 1073.88 366.94 1069.36 368.94C1068.84 369.17 1068.55 369.94 1068.16 370.41L1069.86 370.3C1075.96 369.86 1082.07 369.39 1088.18 368.99C1088.72 369.066 1089.24 369.235 1089.72 369.49C1089.22 369.96 1088.79 370.7 1088.22 370.84C1083.69 371.95 1079.13 372.89 1074.6 373.98C1073.35 374.315 1072.13 374.771 1070.96 375.34C1067.48 376.888 1063.76 377.825 1059.96 378.11C1056.1 378.45 1052.32 379.78 1048.52 380.73C1044.2 381.82 1039.91 383.05 1035.52 384.07C1032.43 384.901 1029.28 385.473 1026.09 385.78C1023.63 385.753 1021.18 385.417 1018.8 384.78C1018.53 384.638 1018.3 384.428 1018.13 384.17C1017.96 383.913 1017.87 383.616 1017.85 383.31C1017.91 382.87 1018.67 382.46 1019.18 382.13C1019.65 381.876 1020.14 381.662 1020.65 381.49C1020.22 381.153 1019.77 380.845 1019.3 380.57C1017.03 379.43 1017.87 377.52 1018.49 376.06C1019.78 372.829 1021.34 369.712 1023.15 366.74C1025.61 362.87 1028.04 358.74 1031.33 355.68C1035.33 351.92 1037.92 347.32 1041.05 343.02C1042.58 341.034 1044.22 339.144 1045.98 337.36C1050.21 332.86 1054.5 328.43 1058.73 323.93C1059.45 323.168 1060.06 322.306 1060.54 321.37C1060.79 320.647 1060.93 319.893 1060.97 319.13C1060.17 319.211 1059.38 319.431 1058.65 319.78C1052.89 324.18 1047.21 328.67 1041.43 333.05C1040.81 333.52 1039.73 333.34 1038.89 333.6C1037.84 333.847 1036.83 334.244 1035.89 334.78C1034.82 335.48 1033.98 336.53 1032.96 337.34C1031.2 338.73 1029.29 338.05 1029.02 335.87C1028.75 333.69 1026.92 331.71 1029.02 329.59C1029.09 329.51 1028.48 328.93 1028.51 328.59C1028.62 327.23 1028.42 325.59 1029.13 324.59C1031.62 321.19 1034.44 318.02 1037.13 314.77C1039.71 311.709 1043.29 309.659 1047.24 308.98C1050.31 308.34 1053.14 306.65 1056.18 305.73C1059.85 304.62 1063.61 303.92 1067.38 305.67C1068.24 305.97 1069.15 306.099 1070.06 306.05C1073.43 306.18 1074.85 307.58 1074.96 311.05C1075 312 1074.93 313 1074.93 314.15Z" fill="black"/>
<path d="M1242.52 329.91C1237 331.15 1232.75 328.75 1229.52 324.67C1227.85 322.52 1227.05 319.67 1226.1 317C1224.63 313.21 1223.4 309.333 1222.42 305.39C1221.57 301.584 1221.12 297.699 1221.09 293.8C1221.09 292.18 1222.59 290.51 1223.56 288.96C1224.39 287.66 1225.56 287.66 1226.72 288.63C1232.55 293.68 1236.96 299.68 1238.97 307.25C1239.14 307.863 1239.43 308.435 1239.83 308.932C1240.23 309.429 1240.72 309.84 1241.28 310.14C1241.84 310.44 1242.46 310.623 1243.09 310.678C1243.73 310.733 1244.37 310.659 1244.97 310.46C1247.34 309.83 1249.83 309.65 1252.21 309.04C1253.07 308.824 1253.82 308.313 1254.34 307.596C1254.86 306.879 1255.11 306.003 1255.05 305.12C1255.1 301.7 1255.55 298.18 1254.89 294.9C1253.89 289.78 1255.59 284.81 1255 279.76C1254.88 278.66 1255.62 276.76 1256.41 276.44C1257.8 276.151 1259.24 276.382 1260.47 277.09C1263.64 278.74 1266.2 281.17 1267.19 284.73C1267.66 286.449 1267.83 288.233 1267.71 290.01C1267.27 294.233 1268.38 298.473 1270.83 301.94C1271.06 302.187 1271.34 302.377 1271.65 302.495C1271.97 302.613 1272.31 302.656 1272.64 302.62C1273.96 302.29 1275.19 301.62 1276.51 301.19C1277.11 301 1278.19 300.87 1278.42 301.19C1280.02 303.34 1281.42 305.6 1282.93 307.85C1283.09 308.1 1282.93 308.51 1283.03 308.85C1284.11 314.85 1283.51 316.08 1277.92 318.94C1275.26 320.3 1272.56 321.6 1269.92 322.94C1269.03 323.333 1268.26 323.964 1267.71 324.763C1267.15 325.562 1266.83 326.498 1266.77 327.47C1266.2 331.286 1265.43 335.071 1264.48 338.81C1263.9 341.45 1263.58 343.75 1265.22 346.51C1266.34 348.614 1267.81 350.508 1269.58 352.11C1270.05 352.625 1270.32 353.3 1270.31 354C1270.31 355.56 1269.99 357.14 1270.1 358.7C1270.23 360.7 1269.34 361.75 1267.51 362.52C1260.51 365.52 1254.51 362.77 1252.05 355.52C1251.25 353.16 1250.19 350.88 1249.35 348.52C1249.13 347.808 1249.06 347.06 1249.14 346.32C1249.39 341.94 1249.71 337.57 1249.97 333.19C1250.16 329.94 1250.14 329.93 1246.97 329.9C1245.52 329.89 1244 329.91 1242.52 329.91Z" fill="black"/>
<path d="M681 127C677.16 126.4 673.2 126.2 669.51 125.1C663.8 123.41 660.66 119.1 659.78 113.28C658.32 103.56 662.18 95.8299 668.78 88.9799C676.3 81.1299 685.6 79.5199 695.78 80.5999C697.605 80.7251 699.419 80.9724 701.21 81.3399C707.95 82.9699 712.21 88.5499 712.85 96.3999C714.21 113.19 702.49 126.13 685.57 126.51C684.07 126.51 682.57 126.51 681.07 126.51L681 127Z" fill="black"/>
<path d="M1093.71 339.83C1093.17 329.73 1096.8 321.48 1104.09 314.59C1107.03 311.8 1109.42 308.42 1112.32 305.59C1115.02 302.96 1117.58 300.13 1121.95 299.81C1123.95 299.66 1125.77 298.52 1127.26 300.81C1127.46 301.12 1128.38 301.13 1128.93 301.03C1130.93 300.68 1132.19 301.97 1133.74 302.91C1139.74 306.57 1140.08 312.7 1140.91 318.64C1141.29 320.506 1141.49 322.405 1141.5 324.31C1141.27 327.635 1140.85 330.944 1140.23 334.22C1139.64 337.42 1138.43 340.53 1138.02 343.74C1137.52 347.64 1135.14 350.57 1133.44 353.8C1132.07 356.4 1129.81 358.53 1127.95 360.88C1127.54 361.4 1127.27 362.15 1126.75 362.43C1124.94 363.38 1123.99 365.98 1120.75 364.27C1118.66 363.14 1115.51 364.1 1112.87 363.82C1109.05 363.4 1105.13 363.14 1101.5 362.01C1097.87 360.88 1095.96 357.14 1095.19 353.62C1094.25 349.14 1094.18 344.44 1093.71 339.83ZM1108.26 349.16L1108.93 349.33C1108.93 350.16 1108.93 351 1108.93 351.82C1108.83 354.13 1109.93 355 1112.21 355.13C1113.39 355.286 1114.59 355.106 1115.67 354.611C1116.76 354.115 1117.68 353.325 1118.33 352.33C1119.64 350.61 1120.79 348.776 1121.77 346.85C1123.41 343.186 1124.82 339.425 1126 335.59C1126.83 332.84 1126.85 329.85 1127.61 327.07C1128.75 322.89 1127.52 319.36 1125.36 315.9C1124.25 314.14 1123.3 314.71 1122.36 315.9C1121.2 317.245 1120.13 318.665 1119.15 320.15C1117.26 323.094 1115.56 326.161 1114.07 329.33C1112.93 332.264 1111.99 335.27 1111.25 338.33C1110.18 342 1109.24 345.57 1108.26 349.16Z" fill="black"/>
<path d="M1269.12 0.0999516C1291.32 -1.62005 1311.02 19.4599 1310.12 42.0999C1309.33 62.5099 1291.69 82.1 1268.2 81.58C1247.12 81.15 1228.1 63.68 1228.04 40.58C1228 18 1247.5 -1.52005 1269.12 0.0999516ZM1302.2 40.57C1302.2 31.7701 1298.7 23.3306 1292.48 17.1081C1286.26 10.8857 1277.82 7.38995 1269.02 7.38995C1260.22 7.38995 1251.78 10.8857 1245.56 17.1081C1239.34 23.3306 1235.84 31.7701 1235.84 40.57C1235.86 49.4094 1239.38 57.8808 1245.63 64.1322C1251.88 70.3835 1260.35 73.9062 1269.19 73.93C1287.76 73.86 1302.78 58 1302.2 40.57Z" fill="black"/>
<path d="M1106.4 386.33C1104.83 385.52 1103.23 384.63 1101.59 383.86C1100.14 383.19 1098.59 382.68 1097.16 382.05C1096.16 381.62 1095.22 381.05 1094.25 380.61C1094.75 379.76 1095.25 378.9 1095.77 378.07C1096.16 377.47 1097.03 376.9 1097 376.34C1096.88 373.21 1099.46 372.71 1101.39 372.19C1107.47 370.58 1113.65 369.3 1119.8 367.96C1123.16 367.23 1126.55 366.62 1129.93 366.04C1130.55 366.061 1131.16 366.2 1131.73 366.45C1131.33 366.82 1130.94 367.21 1130.53 367.57C1130.12 367.93 1129.68 368.24 1129.25 368.57C1129.89 369.05 1130.52 369.93 1131.16 369.94C1132.42 369.94 1133.68 369.32 1134.96 369.25C1135.95 369.315 1136.93 369.507 1137.87 369.82C1137.35 370.59 1137.01 371.66 1136.3 372.09C1130.52 375.54 1124.81 379.15 1118.8 382.14C1115 384 1110.79 384.89 1106.4 386.33Z" fill="black"/>
<path d="M1251.42 39.6098C1251.42 33.3698 1251.48 27.1198 1251.42 20.8798C1251.42 18.9298 1252.01 18.2298 1253.98 18.2798C1259.98 18.4298 1265.98 18.3598 1271.98 18.5498C1273.71 18.6942 1275.42 19.0536 1277.06 19.6198C1279.07 20.0749 1280.87 21.2027 1282.16 22.8172C1283.44 24.4316 1284.14 26.4362 1284.13 28.4998C1284.47 34.5898 1282.88 37.6698 1278.13 39.9098C1276.8 40.5398 1276.13 41.1998 1277.8 42.0298C1280.94 43.5998 1282.39 46.4898 1283.87 49.3798C1285.53 52.6298 1287.03 55.9598 1288.76 59.1698C1289.49 60.5098 1289.31 60.9798 1287.84 60.9898C1285.26 61.1168 1282.68 61.0834 1280.11 60.8898C1279.51 60.7232 1278.95 60.4405 1278.47 60.0578C1277.98 59.6751 1277.57 59.2001 1277.27 58.6598C1275.27 55.2098 1273.68 51.5498 1271.72 48.0898C1270.88 46.6876 1269.61 45.6004 1268.09 44.9965C1266.57 44.3927 1264.9 44.306 1263.33 44.7498C1262.93 45.0004 1262.59 45.3432 1262.34 45.75C1262.1 46.1568 1261.95 46.616 1261.92 47.0898C1261.77 50.9198 1261.79 54.7498 1261.92 58.5798C1261.98 60.4598 1261.24 60.9898 1259.44 61.0298C1251.52 61.1898 1251.52 61.2398 1251.52 53.3398L1251.42 39.6098ZM1261.79 31.6098C1261.68 32.942 1261.7 34.2824 1261.86 35.6098C1262.02 36.3598 1262.86 37.4598 1263.47 37.5298C1265.37 37.7468 1267.28 37.7031 1269.17 37.3998C1271.3 37.0298 1273.1 35.9398 1273.5 33.5098C1273.9 31.0798 1273.97 28.7698 1271.77 27.1598C1270.48 26.2933 1269.01 25.7398 1267.47 25.5436C1265.94 25.3474 1264.37 25.5139 1262.91 26.0298C1260.57 26.7198 1262.26 29.5598 1261.82 31.3898C1261.81 31.4494 1261.8 31.5094 1261.79 31.5698V31.6098Z" fill="black"/>
</g>
</mask>
<g mask="url(#mask0_410_427)">
<rect x="-135" y="-84" width="1531" height="593" fill="#141414"/>
</g>
<defs>
<clipPath id="clip0_410_427">
<rect width="1310.17" height="405.98" fill="white"/>
</clipPath>
</defs>
</svg>
